<svg width="30" height="30" viewBox="0 0 30 30" fill="none" xmlns="http://www.w3.org/2000/svg">
<path fill-rule="evenodd" clip-rule="evenodd" d="M21.4286 18.8571H20.0571L19.5429 18.3429C21.2571 16.4571 22.2857 13.8857 22.2857 11.1429C22.2857 4.97143 17.3143 -2.98023e-07 11.1429 -2.98023e-07C4.97143 -2.98023e-07 0 4.97143 0 11.1429C0 17.3143 4.97143 22.2857 11.1429 22.2857C13.8857 22.2857 16.4571 21.2571 18.3429 19.5429L18.8571 20.0571V21.4286L27.4286 30L30 27.4286L21.4286 18.8571V18.8571ZM11.1431 18.8573C6.8574 18.8573 3.42883 15.4287 3.42883 11.143C3.42883 6.8573 6.8574 3.42873 11.1431 3.42873C15.4288 3.42873 18.8574 6.8573 18.8574 11.143C18.8574 15.4287 15.4288 18.8573 11.1431 18.8573V18.8573Z" fill="black"/>
</svg>
