<?xml version="1.0" encoding="utf-8"?>
<!-- Generator: Adobe Illustrator 17.0.0, SVG Export Plug-In . SVG Version: 6.00 Build 0)  -->
<!DOCTYPE svg PUBLIC "-//W3C//DTD SVG 1.1//EN" "http://www.w3.org/Graphics/SVG/1.1/DTD/svg11.dtd">
<svg version="1.1" id="Capa_1" xmlns="http://www.w3.org/2000/svg" xmlns:xlink="http://www.w3.org/1999/xlink" x="0px" y="0px"
	 width="120.414px" height="120.414px" viewBox="0 0 120.414 120.414" enable-background="new 0 0 120.414 120.414"
	 xml:space="preserve">
<circle cx="60.207" cy="60.207" r="57.5"/>
<g>
	<polygon id="XMLID_498_" fill="#FFFFFF" points="74.112,28.782 46.167,28.782 45.975,28.974 60.098,43.097 64.822,43.097 
		66.802,45.135 66.802,46.438 84.239,46.438 84.239,38.952 	"/>
	<polygon id="XMLID_497_" fill="#FFFFFF" points="59.921,77.308 55.661,77.308 53.606,75.252 53.606,74.199 36.175,74.199 
		36.175,81.494 46.299,91.618 74.234,91.618 	"/>
	<g id="XMLID_493_">
		<polygon id="XMLID_496_" fill="#FFFFFF" points="74.14,53.058 55.613,53.058 53.563,51.109 53.563,44.823 41.77,33.092 
			36.175,38.69 36.175,57.233 46.274,67.257 64.877,67.257 66.851,69.296 66.851,75.338 66.839,75.353 78.608,87.059 84.239,81.455 
			84.239,63.178 		"/>
		<path id="XMLID_495_" fill="#FFFFFF" d="M46.819,39.144c0.253-0.253,0.515-0.516,0.515-0.516
			c-0.022-0.022-0.038-0.038-0.038-0.038l-9.814-9.814l8.87,10.835C46.352,39.61,46.582,39.381,46.819,39.144z"/>
		<path id="XMLID_494_" fill="#FFFFFF" d="M73.838,81.25c-0.253,0.253-0.515,0.516-0.515,0.516c0.022,0.022,0.038,0.038,0.038,0.038
			l9.814,9.814l-8.87-10.835C74.304,80.783,74.075,81.013,73.838,81.25z"/>
	</g>
</g>
</svg>
